<svg width="573" height="328" viewBox="0 0 573 328" fill="none" xmlns="http://www.w3.org/2000/svg">
<path fill-rule="evenodd" clip-rule="evenodd" d="M64.6228 0.426356C62.0451 1.17899 61.8983 2.28302 61.2576 25.7176L60.8628 40.161L59.3132 41.4419C57.7648 42.7216 52.6716 45.503 51.8762 45.503C51.6258 45.503 51.7121 44.8742 52.0905 43.9479C53.4221 40.6861 52.0461 37.5991 46.0785 30.4606C41.1641 24.5819 41.4166 25.1221 41.8895 21.4946C42.3419 18.0215 41.9652 15.5345 40.8696 14.7636C39.7761 13.994 36.8037 13.7154 35.1825 14.2302C32.8088 14.9841 32.0604 16.2578 32.0632 19.5386C32.0645 21.0871 32.2582 23.0221 32.4938 23.8384C32.8828 25.1858 32.771 25.6333 31.2864 28.6819C28.7441 33.902 23.8285 40.8388 18.1167 47.2667C15.8474 49.8206 15.4695 51.2946 16.6641 52.9356C17.4134 53.9652 19.3331 55 20.4941 55C21.697 55 23.6241 53.2696 27.1053 49.0644C30.6366 44.7983 33.3023 41.0339 35.9137 36.6249L37.7121 33.589L39.7696 36.0836C43.1558 40.1887 44.3981 42.3199 44.3981 44.0239C44.3981 46.0083 43.8944 46.8627 42.3645 47.4725C40.6784 48.1444 38.6436 47.7119 36.7769 46.2841C34.7964 44.7698 33.9414 44.8014 32.2253 46.4527C30.7522 47.8701 30.5001 49.047 31.3555 50.515C34.418 55.77 47.5976 55.6225 57.8664 50.2175L60.848 48.6481V49.8582C60.848 51.7334 61.909 53.7693 63.1168 54.211C64.9398 54.8781 68.0489 54.6902 69.13 53.8481C70.1002 53.0923 70.1014 53.0796 70.4316 40.5001C70.7993 26.5043 70.6266 27.2732 73.8018 25.5166C75.9176 24.3461 78.425 23.9737 79.7653 24.631C81.9971 25.7251 82.2311 26.9724 82.2344 37.7867C82.2377 48.3288 82.4614 49.9852 84.1779 52.1731C85.5885 53.9708 87.3778 54.6043 91.0461 54.6043C94.8514 54.6043 97.4176 53.7049 101.232 51.0346C103.627 49.358 104.018 49.1993 104.222 49.819C104.718 51.3211 107.456 53.4334 109.733 54.0705C113.87 55.2275 118.296 54.1631 121.719 51.1881C123.361 49.7608 123.505 49.7098 123.931 50.405C124.754 51.7524 126.311 53.4279 127.13 53.8497C128.53 54.5711 131.905 54.8936 134.286 54.5343C137.123 54.1061 140.655 52.4267 143.086 50.35L144.925 48.7787L146.672 50.6484C149.05 53.194 151.889 54.3756 155.64 54.3811C159.248 54.3867 162.173 53.4461 164.496 51.5332C165.714 50.5301 166.327 50.2361 166.452 50.5958C166.801 51.604 169.013 53.7195 170.22 54.2011C170.974 54.5014 172.74 54.6304 174.849 54.5386C178.889 54.3625 181.56 53.3238 185.095 50.5534L187.403 48.7447L188.888 50.4545C191.01 52.8972 194.267 54.3404 197.74 54.3776C201.677 54.4195 203.228 53.9909 206.178 52.0472L208.803 50.318L209.775 51.733C211.372 54.0586 213.015 54.666 217.327 54.5263C220.473 54.4242 221.395 54.2284 223.477 53.2193C224.825 52.5664 226.941 51.1264 228.181 50.0192L230.435 48.0063L231.731 49.8214C236.471 56.461 247.155 56.5563 254.867 50.0279L257.039 48.1891L259.095 50.0394C261.72 52.4022 264.732 53.7207 268.569 54.1876C274.248 54.8781 279.87 53.6332 284.191 50.7287C286.539 49.1503 287.318 47.8369 286.887 46.1828C286.534 44.8291 284.663 42.7331 283.808 42.7331C283.432 42.7331 282.223 43.3492 281.123 44.1018C278.462 45.9221 275.682 46.7606 272.321 46.7566C269.245 46.7531 267.561 46.2711 266.124 44.9819C264.055 43.1252 264.139 42.9277 267.793 41.0786C272.047 38.9256 276.144 35.1584 277.793 31.8831C278.744 29.9948 279.006 28.8643 279.146 26.05C279.304 22.876 279.219 22.3616 278.211 20.3787C276.356 16.7311 272.445 15.104 267.35 15.8613C264.03 16.3544 261.924 17.3919 259.492 19.7321C255.474 23.5982 253.517 29.5675 253.83 36.9953C254.012 41.3018 254.001 41.3635 252.839 42.7916C250.816 45.2763 247.931 46.7697 244.729 46.9901C241.007 47.2465 239.608 46.554 238.273 43.7955C237.727 42.667 237.278 41.4165 237.276 41.0165C237.274 40.6164 238.486 38.8357 239.97 37.0594C243.178 33.2183 246.007 27.9079 247.173 23.5412C248.392 18.9752 248.712 10.5486 247.797 7.11936C246.898 3.75268 245.564 1.87307 243.338 0.835915C240.044 -0.69864 236.187 -0.0896467 233.369 2.41004C229.953 5.43997 228.453 11.0076 227.837 22.9477C227.595 27.6352 227.582 32.5958 227.805 35.5858C228.215 41.1067 228.21 41.1245 225.072 43.9601C222.636 46.1615 221.604 46.6901 219.743 46.6901C218.185 46.6901 217.982 46.5738 217.573 45.4441C217.048 43.9954 217.011 27.5763 217.499 12.4614C217.674 7.02043 217.674 2.19003 217.499 1.72705C216.588 -0.677272 209.493 -0.417687 208.541 2.05509C208.349 2.55527 208.084 5.96508 207.953 9.63289C207.823 13.3003 207.637 16.3773 207.54 16.4707C207.443 16.5641 206.057 16.4454 204.461 16.2068C197.382 15.1502 190.409 18.5533 187.396 24.5356C185.603 28.0958 185.044 30.9331 185.044 36.471V41.5182L183.708 42.9867C180.807 46.1733 176.222 47.8025 175.236 45.9976C174.388 44.4457 174.295 39.4835 174.783 21.6236C175.064 11.3178 175.175 2.42745 175.029 1.86752C174.481 -0.232102 168.655 -0.646408 166.677 1.27357C165.809 2.11682 165.733 2.62372 165.465 9.39468C165.308 13.3664 165.104 16.6163 165.012 16.6163C164.92 16.6163 163.593 16.4296 162.062 16.2008C153.292 14.8915 145.888 19.7507 143.222 28.5647C142.814 29.9145 142.555 32.6132 142.497 36.1251L142.408 41.5863L140.388 43.5767C138.265 45.6684 135.881 47.0858 134.487 47.0858C134.031 47.0858 133.346 46.6288 132.966 46.0701C132.336 45.1461 132.305 44.0061 132.618 33.5063C133.125 16.4826 133.172 17.8506 132.051 16.9768C130.567 15.821 126.248 15.9088 124.778 17.1248C123.731 17.9914 123.671 18.2573 123.336 23.5551C123.144 26.5945 122.977 32.3224 122.966 36.2838L122.946 43.4865L121.003 44.7725C119.525 45.7515 118.51 46.0974 116.759 46.2192C111.842 46.5611 111.218 44.4663 111.54 28.6854C111.651 23.2445 111.594 18.42 111.415 17.9641C110.936 16.7465 108.91 16.094 106.264 16.3053C102.197 16.6298 102.317 16.2464 102.066 29.6996L101.85 41.278L100.369 42.8621C97.9884 45.4077 95.8922 46.6901 94.1116 46.6901C91.5984 46.6901 91.5215 46.3225 91.6408 34.9103C91.7584 23.6291 91.4471 21.685 89.11 19.1243C85.3105 14.9603 77.7066 15.0984 72.5861 19.4243L70.9963 20.7677L71.2862 11.611L71.5761 2.45475L70.6327 1.42077C69.5429 0.225337 66.8414 -0.221418 64.6228 0.426356ZM240.748 8.84464C241.304 11.4868 241.344 12.8587 240.974 16.6163C240.5 21.4175 239.475 25.1779 237.698 28.6261L236.444 31.0597L236.646 22.3541C236.858 13.1598 237.464 8.93724 238.696 8.07064C239.613 7.42564 240.521 7.76792 240.748 8.84464ZM270.636 23.9987C271.465 24.9618 271.223 28.1801 270.161 30.29C269.261 32.0786 266.419 34.606 263.897 35.8608L262.694 36.4599L262.968 33.3639C263.367 28.8469 264.242 26.2 265.846 24.6571C267.398 23.1637 269.65 22.8543 270.636 23.9987ZM164.812 24.3734C164.97 24.5685 165.006 29.1801 164.893 34.621L164.687 44.5137L162.426 45.6308C158.577 47.531 154.925 46.6557 153.258 43.4335C152.181 41.3509 151.621 37.425 151.908 33.9594C152.336 28.7768 153.756 26.0263 156.767 24.5487C158.221 23.8352 159.03 23.7173 161.522 23.8538C163.174 23.9445 164.655 24.1783 164.812 24.3734ZM206.608 24.1249L207.663 24.5107L207.66 34.3144L207.657 44.118L206.323 44.9652C203.033 47.0546 199.223 47.1321 197.022 45.1536C195.093 43.4196 194.37 40.3655 194.585 34.8545C194.722 31.3454 194.963 29.8393 195.614 28.4421C196.483 26.5751 198.699 24.5356 200.36 24.0754C201.818 23.671 205.446 23.6999 206.608 24.1249Z" fill="white"/>
<path d="M69.2563 324.31L0 109.682H47.4021L79.4139 212.691L96.3433 280.032H97.2667L113.58 212.691L145.592 109.682H191.455L121.583 324.31H69.2563Z" fill="white"/>
<path d="M201.733 162.878H247.288V324.31H201.733V162.878Z" fill="white"/>
<path d="M329.206 328C313.61 328 300.477 325.54 289.807 320.62C279.136 315.495 269.594 308.321 261.181 299.096L287.96 272.037C293.705 278.392 300.067 283.414 307.044 287.104C314.021 290.794 321.921 292.639 330.745 292.639C339.774 292.639 346.032 291.306 349.521 288.641C353.009 285.771 354.754 281.979 354.754 277.264C354.754 269.679 349.316 265.17 338.44 263.735L320.895 261.582C284.574 257.072 266.413 240.468 266.413 211.769C266.413 203.979 267.85 196.907 270.723 190.552C273.801 183.992 278.007 178.457 283.343 173.947C288.883 169.233 295.45 165.645 303.042 163.185C310.84 160.52 319.561 159.188 329.206 159.188C337.619 159.188 345.006 159.803 351.368 161.033C357.934 162.058 363.68 163.698 368.605 165.953C373.735 168.003 378.352 170.668 382.456 173.947C386.765 177.022 390.972 180.507 395.076 184.402L368.913 211.154C363.783 206.029 357.934 202.032 351.368 199.162C345.006 196.087 338.44 194.549 331.668 194.549C323.87 194.549 318.33 195.779 315.047 198.239C311.763 200.699 310.122 203.979 310.122 208.079C310.122 212.384 311.25 215.766 313.508 218.226C315.97 220.481 320.484 222.121 327.051 223.146L345.212 225.606C380.712 230.321 398.462 246.515 398.462 274.189C398.462 281.979 396.82 289.154 393.537 295.714C390.254 302.273 385.534 308.013 379.378 312.933C373.427 317.648 366.142 321.338 357.524 324.003C349.11 326.668 339.671 328 329.206 328Z" fill="white"/>
<path d="M414.131 162.878H459.687V324.31H414.131V162.878Z" fill="white"/>
<path d="M543.451 324.31C527.65 324.31 515.646 320.313 507.437 312.318C499.434 304.323 495.433 292.639 495.433 277.264V198.239H472.655V162.878H484.044C490.2 162.878 494.407 161.443 496.664 158.573C498.921 155.498 500.05 151.193 500.05 145.658V119.214H540.988V162.878H573V198.239H540.988V288.949H570.538V324.31H543.451Z" fill="white"/>
<path d="M224.5 146C215.256 146 208.477 143.937 204.163 139.81C200.054 135.476 198 130.008 198 123.405V116.595C198 109.992 200.054 104.627 204.163 100.5C208.477 96.1667 215.256 94 224.5 94C233.744 94 240.421 96.1667 244.529 100.5C248.843 104.627 251 109.992 251 116.595V123.405C251 130.008 248.843 135.476 244.529 139.81C240.421 143.937 233.744 146 224.5 146Z" fill="#AEFFF7"/>
<path d="M435.5 146C426.256 146 419.477 143.937 415.163 139.81C411.054 135.476 409 130.008 409 123.405V116.595C409 109.992 411.054 104.627 415.163 100.5C419.477 96.1667 426.256 94 435.5 94C444.744 94 451.421 96.1667 455.529 100.5C459.843 104.627 462 109.992 462 116.595V123.405C462 130.008 459.843 135.476 455.529 139.81C451.421 143.937 444.744 146 435.5 146Z" fill="#AEFFF7"/>
</svg>
